<svg width="72" height="72" viewBox="0 0 72 72" fill="none" xmlns="http://www.w3.org/2000/svg">
<circle cx="36" cy="36" r="36" fill="#CDDFF0"/>
<mask id="mask0_6549_40560" style="mask-type:alpha" maskUnits="userSpaceOnUse" x="12" y="12" width="48" height="48">
<rect x="12" y="12" width="48" height="48" fill="#D9D9D9"/>
</mask>
<g mask="url(#mask0_6549_40560)">
<path d="M39.1555 56.488C35.2865 56.488 32.0748 55.1319 29.5205 52.4195C26.9661 49.7072 25.689 46.4627 25.689 42.686V41.127C22.7363 40.7207 20.2636 39.4027 18.271 37.173C16.2786 34.9434 15.2825 32.302 15.2825 29.249V19.261C15.2825 18.7727 15.4441 18.3647 15.7675 18.037C16.0905 17.7094 16.4966 17.5455 16.986 17.5455H21.6175V17.0455C21.6415 16.5885 21.8121 16.2104 22.1295 15.911C22.4471 15.6117 22.8393 15.462 23.306 15.462C23.797 15.462 24.206 15.6235 24.533 15.9465C24.8603 16.2699 25.024 16.676 25.024 17.165V21.345C25.024 21.8084 24.86 22.208 24.532 22.544C24.2043 22.88 23.7961 23.048 23.3075 23.048C22.8431 23.048 22.4513 22.9004 22.132 22.605C21.813 22.3097 21.6415 21.9294 21.6175 21.464V20.964H18.701V29.249C18.701 31.6474 19.54 33.6775 21.218 35.3395C22.896 37.0015 24.9363 37.8325 27.339 37.8325C29.742 37.8325 31.7841 37.0015 33.4655 35.3395C35.1471 33.6775 35.988 31.6474 35.988 29.249V20.964H33.06V21.464C33.036 21.896 32.8651 22.268 32.5475 22.58C32.2301 22.892 31.838 23.048 31.371 23.048C30.8803 23.048 30.4733 22.8864 30.15 22.563C29.8266 22.24 29.665 21.8339 29.665 21.3445V17.165C29.665 16.676 29.8266 16.2699 30.15 15.9465C30.4733 15.6235 30.8803 15.462 31.371 15.462C31.838 15.462 32.2301 15.6117 32.5475 15.911C32.8651 16.2104 33.036 16.5885 33.06 17.0455V17.5455H37.6915C38.1805 17.5455 38.5866 17.7094 38.91 18.037C39.233 18.3647 39.3945 18.7727 39.3945 19.261V29.249C39.3945 32.286 38.4083 34.9174 36.436 37.143C34.4633 39.3687 32.0165 40.6889 29.0955 41.1035V42.686C29.0955 45.5334 30.0423 47.9757 31.936 50.013C33.8296 52.0507 36.2373 53.0695 39.159 53.0695C41.8806 53.0695 44.2351 52.0615 46.2225 50.0455C48.2098 48.0295 49.2035 45.5764 49.2035 42.686V38.9195C48.0048 38.5542 47.0205 37.8644 46.2505 36.85C45.4805 35.8357 45.0955 34.671 45.0955 33.356C45.0955 31.733 45.6568 30.3589 46.7795 29.2335C47.9018 28.1082 49.2755 27.5455 50.9005 27.5455C52.5255 27.5455 53.9011 28.1082 55.0275 29.2335C56.1541 30.3589 56.7175 31.733 56.7175 33.356C56.7175 34.671 56.3325 35.8357 55.5625 36.85C54.7925 37.8644 53.8083 38.5542 52.61 38.9195V42.686C52.61 46.523 51.293 49.7825 48.659 52.4645C46.0253 55.1469 42.8575 56.488 39.1555 56.488Z" fill="#055EB5"/>
</g>
</svg>
