<svg width="72" height="72" viewBox="0 0 72 72" fill="none" xmlns="http://www.w3.org/2000/svg">
<circle cx="36" cy="36" r="36" fill="#D3DCF8"/>
<mask id="mask0_6549_40548" style="mask-type:alpha" maskUnits="userSpaceOnUse" x="12" y="12" width="48" height="48">
<rect x="12" y="12" width="48" height="48" fill="#D9D9D9"/>
</mask>
<g mask="url(#mask0_6549_40548)">
<path d="M35.9974 35.7945C33.7081 35.7945 31.8364 35.0675 30.3824 33.6135C28.9281 32.1591 28.2009 30.2873 28.2009 27.998C28.2009 25.7086 28.9281 23.8361 30.3824 22.3805C31.8364 20.9245 33.7081 20.1965 35.9974 20.1965C38.2868 20.1965 40.1613 20.9245 41.6209 22.3805C43.0809 23.8361 43.8109 25.7086 43.8109 27.998C43.8109 30.2873 43.0809 32.1591 41.6209 33.6135C40.1613 35.0675 38.2868 35.7945 35.9974 35.7945ZM19.7009 49.048V47.4315C19.7009 46.1171 20.0321 44.9843 20.6944 44.033C21.3568 43.082 22.2148 42.3605 23.2684 41.8685C25.5178 40.8605 27.6794 40.1045 29.7534 39.6005C31.8271 39.0965 33.9083 38.8445 35.9969 38.8445C38.1013 38.8445 40.1811 39.1048 42.2364 39.6255C44.2918 40.1461 46.4401 40.8938 48.6814 41.8685C49.7704 42.3511 50.6476 43.0683 51.3129 44.02C51.9783 44.972 52.3109 46.1091 52.3109 47.4315V49.048C52.3109 49.9926 51.9803 50.7966 51.3189 51.46C50.6579 52.123 49.8491 52.4545 48.8924 52.4545H23.1074C22.1541 52.4545 21.3481 52.123 20.6894 51.46C20.0304 50.7966 19.7009 49.9926 19.7009 49.048Z" fill="#5171E2"/>
</g>
</svg>
