<svg width="72" height="72" viewBox="0 0 72 72" fill="none" xmlns="http://www.w3.org/2000/svg">
<circle cx="36" cy="36" r="36" fill="#FFE8B6"/>
<mask id="mask0_6549_40640" style="mask-type:alpha" maskUnits="userSpaceOnUse" x="12" y="12" width="48" height="48">
<rect x="12" y="12" width="48" height="48" fill="#D9D9D9"/>
</mask>
<g mask="url(#mask0_6549_40640)">
<path d="M21.1074 54.299C20.1708 54.299 19.3688 53.9655 18.7014 53.2985C18.0344 52.6311 17.7009 51.8291 17.7009 50.8925V21.1075C17.7009 20.1675 18.0344 19.3628 18.7014 18.6935C19.3688 18.0238 20.1708 17.689 21.1074 17.689H31.0584C31.2731 16.5223 31.8424 15.564 32.7664 14.814C33.6901 14.064 34.7679 13.689 35.9999 13.689C37.2319 13.689 38.3098 14.064 39.2334 14.814C40.1574 15.564 40.7268 16.5223 40.9414 17.689H50.8924C51.8324 17.689 52.6371 18.0238 53.3064 18.6935C53.9761 19.3628 54.3109 20.1675 54.3109 21.1075V50.8925C54.3109 51.8291 53.9761 52.6311 53.3064 53.2985C52.6371 53.9655 51.8324 54.299 50.8924 54.299H21.1074ZM27.6109 45.8925H38.1224C38.5498 45.8925 38.9073 45.7478 39.1949 45.4585C39.4823 45.1695 39.6259 44.8111 39.6259 44.3835C39.6259 43.9561 39.4823 43.6008 39.1949 43.3175C38.9073 43.0341 38.5498 42.8925 38.1224 42.8925H27.6109C27.1836 42.8925 26.8263 43.037 26.5389 43.326C26.2513 43.6153 26.1074 43.9736 26.1074 44.401C26.1074 44.8286 26.2513 45.1841 26.5389 45.4675C26.8263 45.7508 27.1836 45.8925 27.6109 45.8925ZM27.6109 37.5H44.3889C44.8163 37.5 45.1736 37.3553 45.4609 37.066C45.7486 36.777 45.8924 36.4186 45.8924 35.991C45.8924 35.5636 45.7486 35.2083 45.4609 34.925C45.1736 34.6416 44.8163 34.5 44.3889 34.5H27.6109C27.1836 34.5 26.8263 34.6446 26.5389 34.934C26.2513 35.223 26.1074 35.5813 26.1074 36.009C26.1074 36.4363 26.2513 36.7916 26.5389 37.075C26.8263 37.3583 27.1836 37.5 27.6109 37.5ZM27.6109 29.1075H44.3889C44.8163 29.1075 45.1736 28.963 45.4609 28.674C45.7486 28.3846 45.8924 28.0263 45.8924 27.599C45.8924 27.1713 45.7486 26.8158 45.4609 26.5325C45.1736 26.2491 44.8163 26.1075 44.3889 26.1075H27.6109C27.1836 26.1075 26.8263 26.2521 26.5389 26.5415C26.2513 26.8305 26.1074 27.1888 26.1074 27.6165C26.1074 28.0438 26.2513 28.3991 26.5389 28.6825C26.8263 28.9658 27.1836 29.1075 27.6109 29.1075ZM35.9999 20.2215C36.4943 20.2215 36.9214 20.0415 37.2814 19.6815C37.6414 19.3215 37.8214 18.8943 37.8214 18.4C37.8214 17.9056 37.6414 17.4785 37.2814 17.1185C36.9214 16.7585 36.4943 16.5785 35.9999 16.5785C35.5056 16.5785 35.0784 16.7585 34.7184 17.1185C34.3584 17.4785 34.1784 17.9056 34.1784 18.4C34.1784 18.8943 34.3584 19.3215 34.7184 19.6815C35.0784 20.0415 35.5056 20.2215 35.9999 20.2215Z" fill="#B37100"/>
</g>
</svg>
