<svg width="72" height="72" viewBox="0 0 72 72" fill="none" xmlns="http://www.w3.org/2000/svg">
<circle cx="36" cy="36" r="36" fill="#B3E5DB"/>
<mask id="mask0_6549_40584" style="mask-type:alpha" maskUnits="userSpaceOnUse" x="12" y="12" width="48" height="48">
<rect x="12" y="12" width="48" height="48" fill="#D9D9D9"/>
</mask>
<g mask="url(#mask0_6549_40584)">
<path d="M29.452 45C28.9954 45 28.6132 44.8426 28.3055 44.528C27.9982 44.2133 27.8445 43.8271 27.8445 43.3695C27.8445 42.9115 27.9982 42.5288 28.3055 42.2215C28.6132 41.9145 28.9954 41.761 29.452 41.761H33.2965C33.7515 41.761 34.1352 41.9183 34.4475 42.233C34.7602 42.5476 34.9165 42.9338 34.9165 43.3915C34.9165 43.8495 34.7602 44.232 34.4475 44.539C34.1352 44.8463 33.7515 45 33.2965 45H29.452ZM27.964 56.299C25.1177 56.299 22.6957 55.296 20.698 53.29C18.7 51.2843 17.701 48.8543 17.701 46V28.299C16.585 28.243 15.6334 27.8175 14.846 27.0225C14.0587 26.2271 13.665 25.2715 13.665 24.1555V19.8815C13.665 18.7248 14.0805 17.737 14.9115 16.918C15.7422 16.0986 16.7399 15.689 17.9045 15.689H38.036C39.1997 15.689 40.1972 16.0986 41.0285 16.918C41.8595 17.737 42.275 18.7248 42.275 19.8815V24.1555C42.275 25.2715 41.8794 26.2271 41.088 27.0225C40.2967 27.8175 39.347 28.243 38.239 28.299V33.6175C38.239 34.5658 37.9064 35.3726 37.241 36.038C36.5757 36.7033 35.7689 37.036 34.8205 37.036H29.452C28.9954 37.036 28.6132 36.8786 28.3055 36.564C27.9982 36.2493 27.8445 35.863 27.8445 35.405C27.8445 34.9473 27.9982 34.5648 28.3055 34.2575C28.6132 33.9501 28.9954 33.7965 29.452 33.7965H34.9165V28.335H21.024V45.996C21.024 47.935 21.6965 49.5831 23.0415 50.9405C24.3869 52.2975 26.0277 52.976 27.964 52.976C28.8587 52.976 29.6877 52.8193 30.451 52.506C31.2147 52.1926 31.8974 51.7685 32.499 51.2335C32.8294 50.9668 33.2122 50.8811 33.6475 50.9765C34.0825 51.0718 34.4247 51.3101 34.674 51.6915C34.9567 52.0978 35.0337 52.5496 34.905 53.047C34.7764 53.544 34.5127 53.9438 34.114 54.2465C33.2474 54.9055 32.2967 55.4123 31.262 55.767C30.2277 56.1216 29.1284 56.299 27.964 56.299ZM45.5885 50.7965C47.0709 50.7965 48.3254 50.2845 49.352 49.2605C50.379 48.2365 50.8925 46.9853 50.8925 45.507C50.8925 44.0286 50.3805 42.7751 49.3565 41.7465C48.3325 40.7178 47.0812 40.2035 45.6025 40.2035C44.1205 40.2035 42.868 40.7155 41.845 41.7395C40.8224 42.7635 40.311 44.0146 40.311 45.493C40.311 46.9713 40.82 48.2248 41.838 49.2535C42.8564 50.2821 44.1065 50.7965 45.5885 50.7965ZM45.5955 54.2035C43.1749 54.2035 41.1192 53.3575 39.4285 51.6655C37.7379 49.9738 36.8925 47.9166 36.8925 45.494C36.8925 43.0716 37.7389 41.0165 39.4315 39.3285C41.1239 37.6405 43.182 36.7965 45.606 36.7965C48.0297 36.7965 50.0864 37.6418 51.776 39.3325C53.466 41.0231 54.311 43.079 54.311 45.5C54.311 46.3703 54.1817 47.207 53.923 48.01C53.6644 48.8126 53.2929 49.5806 52.8085 50.314L57.001 54.5065C57.349 54.8545 57.523 55.2523 57.523 55.7C57.523 56.1476 57.349 56.5455 57.001 56.8935C56.6534 57.2411 56.2535 57.415 55.8015 57.415C55.3499 57.415 54.95 57.2411 54.602 56.8935L50.41 52.713C49.6767 53.197 48.9105 53.5663 48.1115 53.821C47.3125 54.076 46.4739 54.2035 45.5955 54.2035Z" fill="#247D6C"/>
</g>
</svg>
