<svg width="72" height="72" viewBox="0 0 72 72" fill="none" xmlns="http://www.w3.org/2000/svg">
<circle cx="36" cy="36" r="36" fill="#FFE8B6"/>
<mask id="mask0_6549_40608" style="mask-type:alpha" maskUnits="userSpaceOnUse" x="12" y="12" width="48" height="48">
<rect x="12" y="12" width="48" height="48" fill="#D9D9D9"/>
</mask>
<g mask="url(#mask0_6549_40608)">
<path d="M34.4999 56.0965V36.802L17.7009 27.1085V44.44C17.7009 45.0453 17.8503 45.6132 18.1489 46.1435C18.4473 46.6738 18.8658 47.0923 19.4044 47.399L34.4999 56.0965ZM37.4999 56.0965L52.5954 47.399C53.1341 47.0923 53.5546 46.6738 53.8569 46.1435C54.1596 45.6132 54.3109 45.0453 54.3109 44.44V27.0465L37.4999 36.79V56.0965ZM45.8314 28.5305L52.6249 24.6085L37.7034 16.011C37.1728 15.7123 36.6049 15.563 35.9999 15.563C35.3949 15.563 34.8271 15.7123 34.2964 16.011L29.1684 18.975L45.8314 28.5305ZM35.9879 34.252L42.7694 30.2805L26.0944 20.725L19.3629 24.6585L35.9879 34.252Z" fill="#B37100"/>
</g>
</svg>
